<?xml version="1.0" standalone="no"?>
<!DOCTYPE svg PUBLIC "-//W3C//DTD SVG 20010904//EN"
 "http://www.w3.org/TR/2001/REC-SVG-20010904/DTD/svg10.dtd">
<svg version="1.0" xmlns="http://www.w3.org/2000/svg"
 width="1280.000000pt" height="575.000000pt" viewBox="0 0 1280.000000 575.000000"
 preserveAspectRatio="xMidYMid meet">
<metadata>
Created by potrace 1.15, written by Peter Selinger 2001-2017
</metadata>
<g transform="translate(0.000000,575.000000) scale(0.100000,-0.100000)"
fill="#000000" stroke="none">
<path d="M7780 3627 c-19 -10 -28 -27 -40 -75 -10 -41 -22 -67 -37 -77 -17
-12 -23 -26 -23 -56 0 -26 -4 -39 -13 -39 -23 0 -55 -43 -67 -91 l-11 -46 -47
13 c-47 12 -47 12 -77 -21 -92 -102 -185 -252 -185 -297 0 -16 -4 -28 -9 -28
-5 0 -16 -16 -25 -35 -9 -19 -19 -35 -21 -35 -3 0 -83 -9 -178 -20 -331 -38
-865 -89 -1182 -115 -176 -13 -339 -27 -362 -29 -61 -5 -89 26 -33 38 48 9 80
48 80 96 0 22 -7 56 -15 75 l-14 35 37 24 c49 30 253 140 372 200 52 26 109
61 125 77 17 16 38 29 46 29 8 0 24 6 34 14 19 14 19 15 2 33 -11 13 -16 34
-15 61 2 52 -21 74 -68 66 -37 -7 -77 12 -117 54 -23 24 -27 36 -25 73 l3 44
-99 3 c-66 1 -105 7 -115 16 -18 15 -12 17 -156 -39 -338 -132 -1093 -469
-1782 -797 -34 -15 -52 -18 -85 -12 -24 4 -70 6 -103 5 -52 -1 -70 -7 -135
-48 l-75 -46 -360 -2 c-230 -1 -373 -6 -395 -13 -19 -6 -78 -15 -130 -21 -147
-16 -293 -40 -435 -72 -129 -29 -181 -36 -139 -19 11 4 80 20 152 36 73 15
130 29 128 32 -7 7 -217 -39 -356 -78 -155 -44 -410 -131 -487 -166 -28 -13
-54 -24 -57 -24 -16 0 -228 -98 -326 -150 -138 -75 -365 -224 -475 -313 -44
-36 -89 -66 -99 -68 -11 -2 -49 -37 -84 -78 l-65 -74 6 -91 c6 -105 56 -289
118 -433 42 -100 47 -144 24 -199 -14 -33 -13 -38 10 -84 53 -105 132 -143
368 -179 250 -38 767 -76 767 -57 0 4 -11 22 -25 40 -14 18 -25 38 -25 44 0
11 234 22 249 12 4 -3 23 -35 41 -73 88 -180 315 -367 530 -435 218 -70 528
-62 780 19 199 65 370 211 495 424 l38 65 73 0 73 0 7 -37 c8 -50 28 -79 64
-98 25 -13 58 -14 192 -10 201 7 1891 26 4028 45 1021 10 1405 16 1467 26 26
4 34 11 43 39 l12 35 82 0 82 0 49 -67 c150 -206 418 -399 628 -452 171 -44
333 -49 542 -16 136 22 229 51 344 106 87 43 116 63 186 132 90 90 165 199
216 312 l34 75 55 -8 c30 -4 96 -7 145 -7 80 0 102 4 190 38 189 71 299 134
334 190 13 22 21 61 26 121 7 83 11 95 53 164 44 71 47 73 78 68 40 -8 50 4
57 71 7 60 -5 110 -34 147 l-21 27 28 67 c26 64 27 75 28 247 l1 180 -50 32
c-27 18 -62 33 -76 33 -26 0 -27 2 -33 78 -8 96 -8 104 0 229 6 93 4 106 -16
148 -13 27 -33 50 -46 55 -26 10 -26 11 -48 150 -18 110 -29 124 -106 134 -27
4 -67 18 -86 31 -20 14 -49 25 -63 26 -119 3 -262 12 -401 24 -252 23 -558 43
-840 56 -293 13 -978 7 -1200 -11 -139 -12 -151 -11 -301 14 -86 15 -218 43
-295 62 -189 49 -225 57 -484 103 -318 56 -569 91 -660 91 -25 0 -49 4 -55 8
-5 4 -11 49 -12 100 -2 118 -6 136 -38 150 -33 15 -54 15 -85 -1z"/>
</g>
</svg>
